# xmcd CD database file
#
# Track frame offsets:
#	150
#	24212
#	48502
#	79105
#	102857
#	121274
#	145908
#	166066
#	183813
#	203592
#	231140
#
# Disc length: 3326 seconds
#
# Revision: 0
# Processed by: cddbd v1.5.1PL0 Copyright (c) Steve Scherf et al.
# Submitted via: CDex 1.51
#
DISCID=7e0cfc0b
DTITLE=Mo Foster - Southern Reunion
DYEAR=2004
DGENRE=Jazz
TTITLE0=Gil
TTITLE1=Blue
TTITLE2=Achill Island
TTITLE3=Waves
TTITLE4=Tricotism
TTITLE5=A Notional Anthem
TTITLE6=Southern Reunion
TTITLE7=Grand Unified Boogie
TTITLE8=Fractal Landscape
TTITLE9=Shin-Kan-Sen
TTITLE10=The Man From The Everglades
EXTD=YEAR: 2004
EXTT0=
EXTT1=
EXTT2=
EXTT3=
EXTT4=
EXTT5=
EXTT6=
EXTT7=
EXTT8=
EXTT9=
EXTT10=
PLAYORDER=
